2800 0 1 0           
22 CST 2D Block Converter 14 ACIS 28.0.2 NT 24 Tue Aug 28 17:57:16 2018 
1000 9.9999999999999995e-07 1e-10 
T @77 T3CKYJAEWGZEPXHBQ5V69UX_W5PVPAP79DCCJCPDYAVCK27E3B4CPC5DU8UBQJQHYCQ3Q8N3FBUMM 
body $1 -1 -1 $-1 0 $2 $-1 $3 F #
named_attribute-st-attrib $-1 -1 $4 $-1 $0 1 1 1 1 1 1 1 1 1 1 1 1 1 1 0 1 1 1 @37 ca1.000000 1.000000 0.000000 1.000000 #
lump $-1 -1 -1 $-1 $-1 $5 $0 F #
transform $-1 -1 1 0 0 0 1 0 0 0 1 0 0 0.50850000000000006 1 no_rotate no_reflect no_shear #
named_attribute-st-attrib $-1 -1 $6 $1 $0 1 1 1 1 1 1 1 1 1 1 1 1 1 1 0 1 1 1 @6 mMetal #
shell $-1 -1 -1 $-1 $-1 $-1 $7 $-1 $2 F #
named_attribute-st-attrib $-1 -1 $-1 $4 $0 1 1 1 1 1 1 1 1 1 1 1 1 1 1 0 1 1 1 @16 nMSLINE1:MSLINE1 #
face $-1 -1 -1 $-1 $8 $9 $5 $-1 $10 reversed single F F #
face $-1 -1 -1 $-1 $11 $12 $5 $-1 $13 forward single F F #
loop $-1 -1 -1 $-1 $-1 $14 $7 T -4.7999999999999998 -0.34999999999999998 -0.0085000000000000023 4.7999999999999998 0.34999999999999998 -0.0085000000000000023 unknown #
plane-surface $-1 -1 -1 $-1 0 0 -0.0085000000000000023 0 0 1 1 0 0 forward_v I I I I #
face $-1 -1 -1 $-1 $15 $16 $5 $-1 $17 forward single F F #
loop $-1 -1 -1 $-1 $-1 $18 $8 T -4.7999999999999998 -0.34999999999999998 0.0085000000000000023 4.7999999999999998 0.34999999999999998 0.0085000000000000023 unknown #
plane-surface $-1 -1 -1 $-1 0 0 0.0085000000000000023 0 0 1 1 0 0 forward_v I I I I #
coedge $-1 -1 -1 $-1 $19 $20 $21 $22 reversed $9 $-1 #
face $-1 -1 -1 $-1 $23 $24 $5 $-1 $25 forward single F F #
loop $-1 -1 -1 $-1 $-1 $21 $11 T -4.7999999999999998 -0.34999999999999998 -0.0085000000000000023 4.7999999999999998 -0.34999999999999998 0.0085000000000000023 unknown #
plane-surface $-1 -1 -1 $-1 0 -0.34999999999999998 0 -0 -1 -0 0 0 -1 forward_v I I I I #
coedge $-1 -1 -1 $-1 $26 $27 $28 $29 forward $12 $-1 #
coedge $-1 -1 -1 $-1 $30 $14 $31 $32 reversed $9 $-1 #
coedge $-1 -1 -1 $-1 $14 $30 $33 $34 reversed $9 $-1 #
coedge $-1 -1 -1 $-1 $35 $36 $14 $22 forward $16 $-1 #
edge $-1 -1 -1 $-1 $37 0 $38 9.5999999999999996 $14 $39 forward @7 unknown T -4.7999999999999998 -0.34999999999999998 -0.0085000000000000023 4.7999999999999998 -0.34999999999999998 -0.0085000000000000023 #
face $-1 -1 -1 $-1 $40 $41 $5 $-1 $42 forward single F F #
loop $-1 -1 -1 $-1 $-1 $33 $15 T 4.7999999999999998 -0.34999999999999998 -0.0085000000000000023 4.7999999999999998 0.34999999999999998 0.0085000000000000023 unknown #
plane-surface $-1 -1 -1 $-1 4.7999999999999998 0 0 1 -0 -0 0 0 -1 forward_v I I I I #
coedge $-1 -1 -1 $-1 $43 $18 $44 $45 forward $12 $-1 #
coedge $-1 -1 -1 $-1 $18 $43 $46 $47 forward $12 $-1 #
coedge $-1 -1 -1 $-1 $36 $35 $18 $29 reversed $16 $-1 #
edge $-1 -1 -1 $-1 $48 0 $49 9.5999999999999996 $18 $50 forward @7 unknown T -4.7999999999999998 -0.34999999999999998 0.0085000000000000023 4.7999999999999998 -0.34999999999999998 0.0085000000000000023 #
coedge $-1 -1 -1 $-1 $20 $19 $51 $52 reversed $9 $-1 #
coedge $-1 -1 -1 $-1 $53 $54 $19 $32 forward $55 $-1 #
edge $-1 -1 -1 $-1 $56 0 $37 0.69999999999999996 $19 $57 forward @7 unknown T -4.7999999999999998 -0.34999999999999998 -0.0085000000000000023 -4.7999999999999998 0.34999999999999998 -0.0085000000000000023 #
coedge $-1 -1 -1 $-1 $58 $59 $20 $34 forward $24 $-1 #
edge $-1 -1 -1 $-1 $38 0 $60 0.69999999999999996 $20 $61 forward @7 unknown T 4.7999999999999998 -0.34999999999999998 -0.0085000000000000023 4.7999999999999998 0.34999999999999998 -0.0085000000000000023 #
coedge $-1 -1 -1 $-1 $28 $21 $59 $62 reversed $16 $-1 #
coedge $-1 -1 -1 $-1 $21 $28 $53 $63 reversed $16 $-1 #
vertex $-1 -1 -1 $-1 $32 $64 #
vertex $-1 -1 -1 $-1 $22 $65 #
straight-curve $-1 -1 -1 $-1 -4.7999999999999998 -0.34999999999999998 -0.0085000000000000023 1 0 0 I I #
face $-1 -1 -1 $-1 $-1 $55 $5 $-1 $66 forward single F F #
loop $-1 -1 -1 $-1 $-1 $51 $23 T -4.7999999999999998 0.34999999999999998 -0.0085000000000000023 4.7999999999999998 0.34999999999999998 0.0085000000000000023 unknown #
plane-surface $-1 -1 -1 $-1 0 0.34999999999999998 0 -0 1 -0 -0 0 1 forward_v I I I I #
coedge $-1 -1 -1 $-1 $27 $26 $67 $68 forward $12 $-1 #
coedge $-1 -1 -1 $-1 $59 $58 $26 $45 reversed $24 $-1 #
edge $-1 -1 -1 $-1 $49 0 $69 0.69999999999999996 $26 $70 forward @7 unknown T 4.7999999999999998 -0.34999999999999998 0.0085000000000000023 4.7999999999999998 0.34999999999999998 0.0085000000000000023 #
coedge $-1 -1 -1 $-1 $54 $53 $27 $47 reversed $55 $-1 #
edge $-1 -1 -1 $-1 $71 0 $48 0.69999999999999996 $27 $72 forward @7 unknown T -4.7999999999999998 -0.34999999999999998 0.0085000000000000023 -4.7999999999999998 0.34999999999999998 0.0085000000000000023 #
vertex $-1 -1 -1 $-1 $29 $73 #
vertex $-1 -1 -1 $-1 $45 $74 #
straight-curve $-1 -1 -1 $-1 -4.7999999999999998 -0.34999999999999998 0.0085000000000000023 1 0 0 I I #
coedge $-1 -1 -1 $-1 $75 $76 $30 $52 forward $41 $-1 #
edge $-1 -1 -1 $-1 $60 0 $56 9.5999999999999996 $30 $77 forward @7 unknown T -4.7999999999999998 0.34999999999999998 -0.0085000000000000023 4.7999999999999998 0.34999999999999998 -0.0085000000000000023 #
coedge $-1 -1 -1 $-1 $46 $31 $36 $63 forward $55 $-1 #
coedge $-1 -1 -1 $-1 $31 $46 $75 $78 forward $55 $-1 #
loop $-1 -1 -1 $-1 $-1 $31 $40 T -4.7999999999999998 -0.34999999999999998 -0.0085000000000000023 -4.7999999999999998 0.34999999999999998 0.0085000000000000023 unknown #
vertex $-1 -1 -1 $-1 $52 $79 #
straight-curve $-1 -1 -1 $-1 -4.7999999999999998 0.34999999999999998 -0.0085000000000000023 0 -1 0 I I #
coedge $-1 -1 -1 $-1 $44 $33 $76 $80 reversed $24 $-1 #
coedge $-1 -1 -1 $-1 $33 $44 $35 $62 forward $24 $-1 #
vertex $-1 -1 -1 $-1 $34 $81 #
straight-curve $-1 -1 -1 $-1 4.7999999999999998 -0.34999999999999998 -0.0085000000000000023 0 1 0 I I #
edge $-1 -1 -1 $-1 $49 -0.017000000000000005 $38 -0 $59 $82 forward @7 unknown T 4.7999999999999998 -0.34999999999999998 -0.0085000000000000023 4.7999999999999998 -0.34999999999999998 0.0085000000000000023 #
edge $-1 -1 -1 $-1 $37 -0.017000000000000005 $48 0 $53 $83 forward @7 unknown T -4.7999999999999998 -0.34999999999999998 -0.0085000000000000023 -4.7999999999999998 -0.34999999999999998 0.0085000000000000023 #
point $-1 -1 -1 $-1 -4.7999999999999998 -0.34999999999999998 -0.0085000000000000023 #
point $-1 -1 -1 $-1 4.7999999999999998 -0.34999999999999998 -0.0085000000000000023 #
plane-surface $-1 -1 -1 $-1 -4.7999999999999998 0 0 -1 -0 0 0 -0 1 forward_v I I I I #
coedge $-1 -1 -1 $-1 $76 $75 $43 $68 reversed $41 $-1 #
edge $-1 -1 -1 $-1 $69 0 $71 9.5999999999999996 $43 $84 forward @7 unknown T -4.7999999999999998 0.34999999999999998 0.0085000000000000023 4.7999999999999998 0.34999999999999998 0.0085000000000000023 #
vertex $-1 -1 -1 $-1 $68 $85 #
straight-curve $-1 -1 -1 $-1 4.7999999999999998 -0.34999999999999998 0.0085000000000000023 0 1 0 I I #
vertex $-1 -1 -1 $-1 $47 $86 #
straight-curve $-1 -1 -1 $-1 -4.7999999999999998 0.34999999999999998 0.0085000000000000023 0 -1 0 I I #
point $-1 -1 -1 $-1 -4.7999999999999998 -0.34999999999999998 0.0085000000000000023 #
point $-1 -1 -1 $-1 4.7999999999999998 -0.34999999999999998 0.0085000000000000023 #
coedge $-1 -1 -1 $-1 $67 $51 $54 $78 reversed $41 $-1 #
coedge $-1 -1 -1 $-1 $51 $67 $58 $80 forward $41 $-1 #
straight-curve $-1 -1 -1 $-1 4.7999999999999998 0.34999999999999998 -0.0085000000000000023 -1 0 0 I I #
edge $-1 -1 -1 $-1 $71 -0.017000000000000005 $56 -0 $54 $87 forward @7 unknown T -4.7999999999999998 0.34999999999999998 -0.0085000000000000023 -4.7999999999999998 0.34999999999999998 0.0085000000000000023 #
point $-1 -1 -1 $-1 -4.7999999999999998 0.34999999999999998 -0.0085000000000000023 #
edge $-1 -1 -1 $-1 $69 -0.017000000000000005 $60 -0 $76 $88 forward @7 unknown T 4.7999999999999998 0.34999999999999998 -0.0085000000000000023 4.7999999999999998 0.34999999999999998 0.0085000000000000023 #
point $-1 -1 -1 $-1 4.7999999999999998 0.34999999999999998 -0.0085000000000000023 #
straight-curve $-1 -1 -1 $-1 4.7999999999999998 -0.34999999999999998 -0.0085000000000000023 -0 -0 -1 F -1e+30 F 1e+30 #
straight-curve $-1 -1 -1 $-1 -4.7999999999999998 -0.34999999999999998 0.0085000000000000023 -0 -0 1 F -1e+30 F 1e+30 #
straight-curve $-1 -1 -1 $-1 4.7999999999999998 0.34999999999999998 0.0085000000000000023 -1 0 0 I I #
point $-1 -1 -1 $-1 4.7999999999999998 0.34999999999999998 0.0085000000000000023 #
point $-1 -1 -1 $-1 -4.7999999999999998 0.34999999999999998 0.0085000000000000023 #
straight-curve $-1 -1 -1 $-1 -4.7999999999999998 0.34999999999999998 -0.0085000000000000023 -0 -0 -1 F -1e+30 F 1e+30 #
straight-curve $-1 -1 -1 $-1 4.7999999999999998 0.34999999999999998 -0.0085000000000000023 -0 -0 -1 F -1e+30 F 1e+30 #
End-of-ACIS-data 